<?xml version="1.0" standalone="no"?>
<!DOCTYPE svg PUBLIC "-//W3C//DTD SVG 20010904//EN"
 "http://www.w3.org/TR/2001/REC-SVG-20010904/DTD/svg10.dtd">
<svg version="1.0" xmlns="http://www.w3.org/2000/svg"
 width="270.000000pt" height="270.000000pt" viewBox="0 0 270.000000 270.000000"
 preserveAspectRatio="xMidYMid meet">
<metadata>
Created by potrace 1.11, written by Peter Selinger 2001-2013
</metadata>
<g transform="translate(0.000000,270.000000) scale(0.100000,-0.100000)"
fill="#000000" stroke="none">
<path d="M0 1350 l0 -1350 1350 0 1350 0 0 1350 0 1350 -1350 0 -1350 0 0
-1350z m1500 110 l0 -460 -64 0 c-63 0 -65 1 -71 29 l-6 30 -44 -31 c-48 -34
-117 -46 -199 -34 -60 9 -129 63 -164 129 -25 48 -27 61 -27 167 0 130 18 185
78 248 73 76 192 103 282 63 26 -11 51 -21 56 -21 5 0 9 74 9 163 0 90 3 167
7 170 3 4 37 7 75 7 l68 0 0 -460z m348 378 l-3 -83 -54 -3 c-98 -6 -101 -3
-101 82 0 40 3 76 7 79 3 4 40 7 80 7 l74 0 -3 -82z m352 -143 l0 -84 88 -3
87 -3 0 -60 0 -60 -87 -3 -88 -3 0 -164 c0 -155 1 -166 21 -186 19 -19 29 -21
95 -16 l74 5 0 -58 c0 -68 -3 -70 -121 -70 -85 0 -132 12 -168 44 -45 40 -51
73 -51 265 l0 180 -52 3 -53 3 -3 63 -3 62 56 0 55 0 0 85 0 85 75 0 75 0 0
-85z m-355 -481 l0 -390 -28 -42 c-15 -24 -45 -51 -70 -63 -46 -24 -151 -36
-211 -25 l-36 7 0 58 0 58 68 -5 c62 -4 71 -2 98 21 l29 25 3 364 c1 199 4
369 7 376 3 9 24 12 72 10 l68 -3 0 -391z"/>
<path d="M1160 1482 c-55 -29 -84 -92 -84 -177 0 -83 15 -133 50 -166 36 -34
132 -34 187 -1 l37 24 0 148 0 148 -49 21 c-61 26 -96 27 -141 3z"/>
</g>
</svg>
